{"title":"Britney Spears Live The Femme Fatale Tour 2011 BRRip 720p x264 -","uid":8220184,"size":837226160,"categoryP":"video","categoryS":"music_videos","magnet":"?xt=urn:btih:ac67925f0e86f3943c3ca1fd06ccc1d9ba35a737&amp;dn=Britney+Spears+Live+The+Femme+Fatale+Tour+2011+BRRip+720p+x264+-&amp;tr=udp%3A%2F%2Ftracker.openbittorrent.com%3A80&amp;tr=udp%3A%2F%2Fopen.demonii.com%3A1337&amp;tr=udp%3A%2F%2Ftracker.coppersurfer.tk%3A6969&amp;tr=udp%3A%2F%2Fexodus.desync.com%3A6969","seeders":3,"leechers":0,"uploader":"Vitamin_X","files":-1,"time":1362458910,"description":"_________________________  Visit us at _________________________\n  &lt;a href=&quot;\nhttp://p2pdl.com&quot; rel=&quot;nofollow&quot; target=&quot;_NEW&quot;&gt;\nhttp://p2pdl.com&lt;/a&gt;  ____________________________ &lt;a href=&quot; http://p2pdl.com&quot; rel=&quot;nofollow&quot; target=&quot;_NEW&quot;&gt; http://p2pdl.com&lt;/a&gt;\n\nBritney Spears Live The Femme Fatale Tour 2011 BRRip 720p x264 - PRiSTiNE\n\nGenre: Music\nPlot: A live concert performance of Grammy-winning pop phenomenon \nBritney Spears at the Air Canada Centre in Toronto.\nDirector: Ted Kenney, Daniel 'Cloud' Campos\nStars: Britney Spears, Nicki Minaj, Sabi\nRated: PG 13\n\nInfo: &lt;a href=&quot;\nhttp://www.imdb.com/title/tt2022347/&quot; rel=&quot;nofollow&quot; target=&quot;_NEW&quot;&gt;\nhttp://www.imdb.com/title/tt2022347/&lt;/a&gt;\n\nGeneral\nComplete name                  : Britney Spears Live The Femme Fatale Tour 2011 BRRip 720p x264 - PRiSTiNE.mp4\nFormat                         : MPEG-4\nFormat profile                 : Base Media\nCodec ID                       : isom\nFile size                      : 788 MiB\nDuration                       : 1h 25mn\nOverall bit rate mode          : Variable\nOverall bit rate               : 1 282 Kbps\n\nSource                         : 1080p MKV AC3 (Thanks)\n\nVideo\nFormat                         : AVC\nFormat/Info                    : Advanced Video Codec\nBit rate                       : 1 199 Kbps\nWidth                          : 1 280 pixels\nHeight                         : 720 pixels\nDisplay aspect ratio           : 16:9\nFrame rate mode                : Constant\nFrame rate                     : 23.976 fps\nBit depth                      : 8 bits\nBits/(Pixel*Frame)             : 0.054\nStream size                    : 737 MiB (94%)\nWriting library                : x264 core 129 r2245 bc13772\n\nAudio\nFormat                         : AAC\nDuration                       : 1h 25mn\nBit rate mode                  : Variable\nBit rate                       : 80.0 Kbps\nChannel(s)                     : 2 channels\nChannel positions              : Front: L R\nSampling rate                  : 48.0 KHz / 24.0 KHz\nStream size                    : 49.2 MiB (6%)\nLanguage                       : English\n\nSubtitle                       : No\n\nScreens: &lt;a href=&quot;\nhttp://imgr.us/images/qcuwsnxt8c5xu2jb25.jpg&quot; rel=&quot;nofollow&quot; target=&quot;_NEW&quot;&gt;\nhttp://imgr.us/images/qcuwsnxt8c5xu2jb25.jpg&lt;/a&gt; &lt;a href=&quot;\nhttp://imgr.us/images/okrik371z8envdksjy.jpg&quot; rel=&quot;nofollow&quot; target=&quot;_NEW&quot;&gt;\nhttp://imgr.us/images/okrik371z8envdksjy.jpg&lt;/a&gt; &lt;a href=&quot;\nhttp://imgr.us/images/nn2a4qk1iw70dmz6fvs.jpg&quot; rel=&quot;nofollow&quot; target=&quot;_NEW&quot;&gt;\nhttp://imgr.us/images/nn2a4qk1iw70dmz6fvs.jpg&lt;/a&gt; &lt;a href=&quot;\nhttp://imgr.us/images/e4xr3f8jil4ddiuaf.jpg&quot; rel=&quot;nofollow&quot; target=&quot;_NEW&quot;&gt;\nhttp://imgr.us/images/e4xr3f8jil4ddiuaf.jpg&lt;/a&gt; &lt;a href=&quot;\nhttp://imgr.us/images/u6jyw2qwdzt5kpfzqjsp.jpg&quot; rel=&quot;nofollow&quot; target=&quot;_NEW&quot;&gt;\nhttp://imgr.us/images/u6jyw2qwdzt5kpfzqjsp.jpg&lt;/a&gt;\n\nThumbs: &lt;a href=&quot;\nhttp://imgr.us/images/oxbilnnew1aohpth66or.jpg&quot; rel=&quot;nofollow&quot; target=&quot;_NEW&quot;&gt;\nhttp://imgr.us/images/oxbilnnew1aohpth66or.jpg&lt;/a&gt;\n\n----------------------------------------------------------------------------------------------------\nEncoded using revolutionary 10bit encoding, which enables us to provide you more crispier \nand sharper images at small sizes, just make sure you follow our instructions without a fault.\nRecommend to you to use latest version of VLC player. Install K-Lite Codec Pack or shark007 codecs\nin case of any kind of problem in playback (For non-VLC Media Player users). Alternatively, install\nCore AVC codecs, the fastest decoder that there is coupled with Community Center Codec Pack and play\non Windows Media Player Classic. Check sample to be sure.\nEnjoy!","torrent":{"xt":"urn:btih:ac67925f0e86f3943c3ca1fd06ccc1d9ba35a737","amp;dn":"Britney+Spears+Live+The+Femme+Fatale+Tour+2011+BRRip+720p+x264+-","amp;tr":["udp%3A%2F%2Ftracker.openbittorrent.com%3A80","udp%3A%2F%2Fopen.demonii.com%3A1337","udp%3A%2F%2Ftracker.coppersurfer.tk%3A6969","udp%3A%2F%2Fexodus.desync.com%3A6969"],"infoHash":"ac67925f0e86f3943c3ca1fd06ccc1d9ba35a737","infoHashBuffer":{"type":"Buffer","data":[172,103,146,95,14,134,243,148,60,60,161,253,6,204,193,217,186,53,167,55]},"announce":[],"urlList":[]}}